# xmcd
#
# Track frame offsets: 
#        150
#        20576
#        39663
#        60134
#        79817
#        98531
#        117602
#        138368
#        156224
#        174581
#
# Disc length: 2540 seconds
#
# Revision: 0
# Processed by: cddbd v1.5.2PL0 Copyright (c) Steve Scherf et al.
# Submitted via: ExactAudioCopy v1.0b4
#
DISCID=7909ea0a
DTITLE=J. J. Jackson and Prado Brothers - J. J. Jackson and Prado Brothers
DYEAR=2016
DGENRE=Blues
TTITLE0=Two Loves I Have
TTITLE1=Those Lonely Nights
TTITLE2=You Got What It Takes
TTITLE3=Give A Little
TTITLE4=Oh Poh Pah Doh
TTITLE5=Tell It Like It Is
TTITLE6=Strange Things Happening
TTITLE7=Think
TTITLE8=If I Can't Have You
TTITLE9=Mary Joe
EXTD=
EXTT0=
EXTT1=
EXTT2=
EXTT3=
EXTT4=
EXTT5=
EXTT6=
EXTT7=
EXTT8=
EXTT9=
PLAYORDER=
